<svg xmlns="http://www.w3.org/2000/svg" viewBox="0 0 408.83 339.61"><g id="Capa_2" data-name="Capa 2"><g id="Capa_1-2" data-name="Capa 1"><path d="M139.27,41.85c0,5.88-10,24.84-13.07,31.38L119,89.36c-8.28,18.53-12.2,38.58-15.47,58.41-.87,5.67-2,11.34-2,17,0,9.8,2.61,19.18,14,20.48-1.75,2-4.36,4.14-7.2,4.14-6.1,0-12-3.27-16.12-7.62-8.07-8.5-9.38-20.27-9.38-31.39,0-34.22,12.86-69.53,31.39-97.86,3.05-4.58,7.85-10.25,10-15.26-3.27,2.83-8.72,4.36-12.65,6.54A139.68,139.68,0,0,0,87.18,61.46C66.26,80,53.83,101.13,42.28,126.2c-3.92,8.5-7.41,17.22-11.33,25.72l-.87,1.52a4.53,4.53,0,0,0-1.53-1.31h.22C17,147.77,11.12,141.24,11.12,128.38a119.33,119.33,0,0,1,4.57-31.61C18.53,86.53,21.36,76.29,24.41,66c3.71-12.64,8.72-24.63,14-36.83-6.54,3-13.08,7-20.49,7A22.37,22.37,0,0,1,3.92,30.3h.22C3.27,29.21,0,25.28,0,24c0-1.09.87-1.53,1.74-1.75,2.18-.65,4.36-.87,6.54-1.31,6.1-1.09,12.21-2.18,18.31-3.7a164.78,164.78,0,0,0,20.27-5.67,11.58,11.58,0,0,0,4.36-2.83C54.05,6.1,59.28,0,63.21,0c1.09,0,2,1.09,2.61,1.74l3.49,1.53-.22,1.09,1.75,1.09,1.3.22L70,8.06l2.84-.43,2.61,2.61a22.17,22.17,0,0,1-1.09,2.4c-1.3,2.18-3,4.36-4.57,6.54a101.94,101.94,0,0,0-8.07,13.3c-10.9,22.45-20.49,45.77-27.24,69.74-.87,2.84-3.49,13.3-3.49,15.48v1.52h-.22l.22.22v-.22C47.73,83.7,68.87,56,103.09,36c4.8-2.83,18.53-10.24,23.76-10.24C132.52,25.72,139.27,36.83,139.27,41.85ZM25.06,116.39l-.21.43v1.09A3.81,3.81,0,0,0,25.06,116.39Zm1.53-6.1a3.5,3.5,0,0,0-1.09,2.39,2.73,2.73,0,0,0,.22,1.31,1.63,1.63,0,0,0-.22,1.09l-.22.44.22-.22.22-1.09V114ZM27,106.8c-.22.22-.22.87-.22,1.31,0-.22.22-.22.22-.44Zm5-15.69c2.4-7.85,5-15.7,7.63-23.33,6.75-19.39,14.6-39.45,28.11-55.14-.21,0-.65-.22-.87-.22-1.31,0-2.61,2.18-3.27,3.06A149.55,149.55,0,0,0,48.17,43.16C39.89,62.77,32.26,82.82,27.9,103.53l-.22.22c0,.43-.22.65-.22,1.09L27,106.15v.21l.21-.21c0-.44.22-.88.22-1.31l.44-1.09v-.22C30.08,99.82,30.73,95.25,32,91.11Zm-2.4,54.05-.43.87.43-.65ZM34,135.35l-.22.22-.65.22a.78.78,0,0,0,.65-.22H34Zm2-5.88c-.22.21-.22.65-.22,1.09l.22-.22Zm1.31-2.84c-.22,0-.22,0-.22.22l.22.22Zm4.58-9.37a2,2,0,0,0-.22,1.09l-.65.22a.8.8,0,0,0,.65-.22h.22Zm1.74-3.7a.78.78,0,0,0-.22.65A.8.8,0,0,0,43.59,113.56Zm1.31-1.75-.65.22v.22Zm2-4.14h-.44v.22C46.64,107.89,46.64,107.89,46.86,107.67Zm1.74-2.83a.8.8,0,0,0-.65.22Zm3.71-7-.65,1.31L51,100l-.65.44v1.09c-.44.22-.66.43-.66.87l.22-.44.66-.43v-1.09l.65-.44c0-.22.22-.43.44-.87l.65-.87Zm1.09-1.52-.65.21c-.22.22-.22.22-.22.44Zm0-9.81c0-.22-.22-.22-.22-.44,0,.22,0,.22-.22.44Zm3.05,5.23L55.8,92l-.88,2-.65.44-.65,1.3c.21-.43.65-.87.87-1.3l.43-.22A6.45,6.45,0,0,1,56.45,91.76Zm-2-8.06.65-.22c.22-.22.22-.66.66-.87h-.44C55.36,83.26,54.92,83.48,54.49,83.7Zm1.09-63.87.87-.87-.65.44C55.8,19.62,55.8,19.62,55.58,19.83Zm2,60.16.22-.44.43-.21h-.43A.78.78,0,0,0,57.54,80Zm2.62,6.1-1.75,2.84-.65.43-.22.44,1.09-.87ZM58.41,78.9l.66-.65-.44.21Zm2.4-3.49c-.22,0-.22,0-.44.22C60.59,75.63,60.59,75.41,60.81,75.41Zm.44-.65a1.75,1.75,0,0,0,.87-.87l1.09-1.09h-.44l-.65,1.09Zm1.3,8.06L61.9,83l-.65,1.53Zm.88-.87c-.22,0-.22,0-.22.22ZM119,36l-.21.22c-3.93,1.31-7.2,3.49-10.68,5.45-14,8.5-27.47,19-38.15,31.39-2.39,2.61-4.57,5-6.1,8.28-.22.22-.22.43-.43.43.21,0,.21-.21.43-.21V81.3c3.92-3,6.76-7.85,10-11.55,8.5-9.81,21.36-19.4,32.47-26.16,3.93-2.4,8.94-4.36,12.43-7.41H119ZM63.43,72.58a1.65,1.65,0,0,1,.87-.87A1.83,1.83,0,0,1,65,70.62l.87-.87.44-.44a1.83,1.83,0,0,1,.65-1.09c.22,0,.22,0,.22-.22,1.09,0,2.62-1.74,3.27-2.61l.65-1.09v-.22l-.65,1.09v.22c-1.74.21-2.18,1.52-3.27,2.61l-.22.22-.65.44c-.22.43-.44.65-.44,1.09l-.65.21-.22.66-.65.43c0,.44-.44.66-.66.88ZM68,16.13c0,.22,0,.22.22.22Zm3.49,47.51,1.09-1.09-.87.66Zm2.4-2.18.43-.43v-.22Zm1.52-1.52,1.53-1.31-.66.22ZM76.28,63c.22,0,.22-.22.44-.22C76.5,62.77,76.5,62.77,76.28,63Zm.88-.87,1.3-.87A4.29,4.29,0,0,0,77.16,62.12Zm1.3,5.23h-.21c0,.22-.22.22-.22.43ZM78.68,61,80,59.5v-.22h-.22l-.87,1.09Zm.22-4.36.65-.22a30.76,30.76,0,0,1,2.62-2.61l-1.31.87C80.43,55.58,79.55,56,78.9,56.67Zm3,.87a.81.81,0,0,0,.66-.22H82l-.43.66Zm-.22,2c0,.22,0,.22-.21.44L82,59.5Zm1.53-2.83L83.7,56h-.22Zm.87,5.23h-.22v.22Zm0-5.88h.44l1.09-1.53C84.79,54.93,84.79,55.58,84.13,56Zm.87.65.22.22v-.22Zm.44-.65c0,.21,0,.43-.22.43.22,0,.22-.22.44-.22V56Zm0-4.8.65-.44-.65.22Zm1.09,12.42v.22l-.65.66V64.3l.43-.66Zm.22-10a1.63,1.63,0,0,1,1.09-.44l.43-.87-.43.65-.88.22Zm1.3,5h-.21c0,.22-.22.22-.22.44C87.62,58.85,87.84,58.85,88.05,58.63Zm.88-6.32h.21l.22-.44Zm.43,8.94v.21c-.22,0-.22,0-.43.22.21-.22.21-.22.21-.43Zm.22-9.81L90,51c.21,0,.21,0,.43-.22L89.8,51Zm1.31-.66.65-.87h-.43Zm.22,9.16-.22.22C90.89,59.94,90.89,59.94,91.11,59.94Zm.21-8.07.22-.21v-.22C91.32,51.66,91.32,51.66,91.32,51.87Zm.44-2h.44v-.43ZM92.85,49l.65-.22A.8.8,0,0,0,92.85,49Zm4.36-3c.22,0,.22,0,.43-.22h-.43Zm1.52-4.14L99.82,41c-.21.21-.21.21-.43.21Zm1.31,2.4a1.34,1.34,0,0,0-.87.21A1.34,1.34,0,0,0,100,44.25Zm0,1.3c.22,0,.22,0,.44-.22C100.26,45.33,100.26,45.33,100,45.55Zm.44-1.74.65-.44h-.43C100.48,43.59,100.48,43.59,100.48,43.81Zm.87,8.5.22.22h-.22Zm1.09-12.86.87-.44A1.14,1.14,0,0,0,102.44,39.45Zm0,3.49.22-.22h-.22Zm2.83-5.23h.22l.65-.44-.65.22Zm2-1.09a39.46,39.46,0,0,0,3.93-2.4h-.22C109.85,35.09,108.54,35.75,107.23,36.62Zm5.24,4.14c-.22,0-.22.22-.44.22h-.22l-.22.21c.22,0,.22,0,.44-.21C112.25,41,112.25,41,112.47,40.76Zm-.44-7a1.62,1.62,0,0,0,.87-.43l1.75-.87c-.44,0-1.31.65-1.75.87Zm4.79-2.18.88-.65h-.22Z"/><path d="M193.33,121c-4.8,11.33-15.48,30.73-25.07,38.36-4.79-1.75-8.28-2.18-8.28-8.29,0-11.77,2.62-23.32,5-34.87l-7.41,7.63c-4.57,4.79-10.9,14-18.52,14-5.45,0-13.52-5-13.52-11.12,0-12.86,13.73-36.18,24.2-43.59,4.36-3.05,9.8-6.1,15.25-6.1s10,3,13.95,6.76a2.66,2.66,0,0,1,.87,1.74,3.07,3.07,0,0,1-.43,1.31L173.06,85c-15.7,5.45-23.54,23.11-29.86,37.27l.43.44,3.49-2.62L168,101.35c3.93-3.49,4.58-8.06,9.59-10l.22,2.18-.65.22c-.44.87,0,.66-.87,1.53L177,95l.22-1.09.65-.44a1.49,1.49,0,0,1,1.31-.87c.44,0,.87.44,1.09.66L180,94.81l.87-.43v-.22l1.09.43c-1.74,5.45-3.7,10.68-5.66,15.91l-.22.22c.22,0,.22,0,.22-.22.21-.21.65-.43.65-.87,2.18-4.79,3.92-9.81,6.32-14.38,1.09.21,2,.87,2,2a14.18,14.18,0,0,1-1.09,4.36c-2.83,7.84-12.42,34.87-12.42,41.85,2.83-1.75,5-4.8,7.19-7.2h.44c-2.84,4.14-6.76,7.63-8.72,12.21h-.22v.22c.22,0,.22,0,.22-.22,3.92-3.92,7.41-8.72,10.9-13.08a43.7,43.7,0,0,1,2.83-3.92l1.09-1.09c-4.58,7.84-11.77,15-15.69,23.1l7-8.06-2,3.7,1.53-1.09.21.87c.22-1.09,1.31-2.39,2-3.48h.21v-.22l-.21.22h-.44c.65-1.75.87-2.84,2.4-3.93v.88l.43-.88.66-.43.43-.87c.44-1.75,2.18-3.06,2.84-4.8a24.58,24.58,0,0,1,2-3.27h-.22l.44-.87h-.22l1.31-2.4.21.87a11.5,11.5,0,0,1,1.31-2.83h-.22l.66-.43a8.08,8.08,0,0,0,.87-2v.22A34.14,34.14,0,0,1,193.33,121Zm-60.59-7c0,.22-.22.44-.22.66h.22Zm1.3-2.61c2.84-4.8,5.45-10,8.5-14.61.66-.87,2.62-3.27,2.62-4.36l-.44.88c-3.05,3-9.8,14.82-11.33,19a1.65,1.65,0,0,0-.44,1.09l.44-1.09C133.61,112,134,111.81,134,111.38Zm2.18,4.35.66-1.52c-.44.22-.44,1.09-.88,1.52Zm.44,10.25a1.3,1.3,0,0,0-.22.87h.22Zm18.09-33.13c-5.67,3.49-13.95,19-16.13,25.28-.87,2.4-1.31,5-2,7.41a3.56,3.56,0,0,0,.87-1.52C141.67,113.12,147.34,101.79,154.75,92.85Zm-17.22,19.4c2.18-4.14,4.8-7.85,7.19-11.77V100A62.2,62.2,0,0,0,137.53,112.25Zm8.28-20.49.66-.44h-.22ZM146.9,97h.44v-.22C147.12,97,147.12,97,146.9,97ZM148,95.46h.22v-.21C148,95.25,148,95.25,148,95.46Zm21.8,38.8H170v-.43h-.22Zm.87,20.49a.47.47,0,0,0-.44.44Zm0-24.85.22.44v-.66Zm1.74,22.67-1.52,2C171.53,153.88,172.4,153.66,172.4,152.57Zm-.65-26.37H172v-1.09A1.93,1.93,0,0,0,171.75,126.2Zm.22-2,.43-.88h-.21Zm.43-1.09a8.16,8.16,0,0,0,1.53-4.36A35.36,35.36,0,0,0,172.4,123.15Zm.44,30.07c-.22,0-.22.22-.44.22C172.62,153.44,172.84,153.44,172.84,153.22Zm.87-1.52c0-.44.22-.87.22-1.31l-1.31,2Zm0-51.88,1.75-3.27A7.86,7.86,0,0,0,173.71,99.82Zm.44,51.44-.22.22C174.15,151.48,174.15,151.48,174.15,151.26Zm.22-34.22a.81.81,0,0,0-.22.66Zm.65,34c-.22,0-.22.22-.44.22H175Zm0-36.18a1.63,1.63,0,0,0-.22,1.09l.22-.43Zm1.52,34.22h-.21l-.66.44h.22Zm.66-49.69a2.12,2.12,0,0,1,.22.65l.87-1.74C177.63,98.52,177.2,98.73,177.2,99.39Zm1.09-1.31a2,2,0,0,0,.22-1.09A2,2,0,0,0,178.29,98.08Zm2.18,44.46a1.32,1.32,0,0,0-.22.88A1.32,1.32,0,0,0,180.47,142.54Z"/><path d="M265.25,49.48c-5,6.1-24.41,7.84-32.25,9.15-7.85,25.5-12.43,51.87-16.79,78.25-2.18,14-3.92,28.33-3.92,42.5a74.09,74.09,0,0,0,2.18,17,4.74,4.74,0,0,1,.22,1.74c0,2-2.84,2.62-4.36,2.62-.66,0-.87-.66-1.09-1.09l-1.31,2c-2.61-1.31-5.45-2-8.06-3.27-8.07-4.14-8.07-19-8.07-26.59,0-22.89,3-46.21,6.54-68.87.87-5.24,1.31-10.68,2.4-15.92,1.09-6.1,2.61-12.2,3.49-18.3.21-1.53.87-2.84.87-4.36,0-1.09-2-1.09-2.62-1.09-2.18,0-4.57.22-6.75.22l.21-.22a15.48,15.48,0,0,1-6.53-4.8l.21-1.31-2-1.08c.44-2.18.87-2.84,3.05-3.49,4.8-1.31,9.81-1.75,14.61-2.84,4.79-6.32,9.15-12.86,12.2-20.27,2.4-5.66,5.89-11.11,8.94-16.34.87-1.53,1.74-2.84,3.7-2.84l2.62,1.31L231.25,15c1.31-1.31,2.18-2.62,3.27-3.92l.87,1.3,1.75-.21-1.09,3,1.74-1.53,2.4.87v2.18l1.74-.43c1.31,1.09,3.49,2.18,3.49,4.14,0,.87-7.85,23.32-7.85,23.32,1.53-.22,3.27,0,4.8-.44a48.83,48.83,0,0,1,11.33-.87c4.58,0,5.67.87,8.5,4.58C262.2,48.82,264,49.26,265.25,49.48Zm-67.34,99.6h-.22v2.84h.22Zm.87-9.15h-.22v2.61h.22Zm3.05-21.58-.66-.22L199,136.22h.43C200.08,130.34,201,124.24,201.83,118.35Zm10.46-56.23c-3,4.79-10.24,46.2-10.24,53.18v1.09C205.1,98.3,207.71,80,212.29,62.12Zm-9.81,96.12v-2.18h-.22v2.18Zm0-5.45h.22v-.44h-.22Zm.87-8.72h-.21l-.22,4.14h.22Zm.66-5.23h-.22c0,1.09-.22,2-.22,3H204Zm.43-3.71v1.09c2-12.64,3.71-25.28,6.11-37.7,2.39-12.64,5.23-25.07,7.84-37.71C214.47,65.82,204.44,126.2,204.44,135.13Zm20.93-75.19-2,.22C218,78,214.69,96.77,211.64,115.08c-2.84,18.75-5.89,37.93-5.89,56.89a76.36,76.36,0,0,0,.44,10C207.93,140.8,214.91,99.82,225.37,59.94ZM209,48.6V49l.87-1.31A.94.94,0,0,0,209,48.6ZM210.33,160h-.22v.65h.22Zm.65-5.88V153c-.22.21-.22.65-.22,1.09Zm.87-7.2v-.65h-.21v.65Zm.66-5.88h-.22v.87h.22Zm.65-4.58h-.22v.87Zm.66-3.27a1.3,1.3,0,0,1-.22-.87h-.22a1.3,1.3,0,0,0,.22.87Zm.43-5.23H214v1.53h.22Zm.66-3.7h-.22v.87h.22Zm.21-38.58v.65h.22v-.65Zm.44,36v-1.74h-.22v1.74Zm.22-38.8a1.93,1.93,0,0,1-.22,1.09h.22l.22-1.09Zm.43,35.09v-1.3h-.43v1.3Zm0-36.83h.22v-.44Zm.66,33.35a1.93,1.93,0,0,0-.22-1.09h-.22v1.09Zm0-36.62v.65h.22v-.65Zm.43,32.91v-.87h-.21v.87Zm.66-2.61v-1.53h-.22l-.22,1.53ZM218.18,73l-.44.65h.44ZM218,44.25l.22-.22C218,44,218,44,218,44.25Zm.65,60.59a2.75,2.75,0,0,0-.22-1.31h-.21v1.31Zm-.22-33.79.22.22.44-.87Zm.66,29.21h-.22V102h.22ZM219.7,99V97.43h-.22l-.21,1.3C219.48,99,219.48,99,219.7,99Zm-.22-31.17.44-1.09-.44-.21Zm.66,26.81h-.22v1.53h.22Zm0-30.07V65c.21-.22.21-.22.21-.43Zm.65,28.55V91.76h-.22v1.31Zm.65-3.93L221,90.23l.43.22Zm.88-2.61a.94.94,0,0,0-.88.87c0,.44.22.65.22,1.09Zm-.22-1.31c0,.44.22.66.22,1.09l.65-2.18C222.53,84.35,222.1,84.57,222.1,85.22Zm.65-38.8c1.75-1.74,2-4.14,2.4-6.32C223.41,41.85,223.19,44.25,222.75,46.42ZM223,83.91c0-.65.22-1.3.22-2h-.44A5.94,5.94,0,0,0,223,83.91Zm.65-3.27V79.55c-.21.44-.43.66-.43,1.09Zm.22-2.39a.78.78,0,0,0-.22.65l.22-.22Zm.44-1.53.22-.65A.79.79,0,0,0,224.28,76.72Zm.65-2.61-.22.21c0,.66-.21,1.09-.21,1.75l.43-1.75ZM226,70.62c-1.09.87-1.09,2.18-1.09,3.49A21.26,21.26,0,0,0,226,70.62Zm-.65-30.95c-.22.22-.22.22-.22.43C225.15,39.89,225.37,39.89,225.37,39.67Zm1.74,27a3.54,3.54,0,0,0-1.09,2.4,2.75,2.75,0,0,0,.22,1.31A23.71,23.71,0,0,1,227.11,66.69ZM226,70.62h.22V70.4ZM226.46,24c.22-.22.22-.22.22-.44C226.68,23.76,226.46,23.76,226.46,24Zm.65-2-.43,1.09A1.68,1.68,0,0,0,227.11,22Zm.44-.87-.44.87A1.61,1.61,0,0,0,227.55,21.14Zm-.44,44.68.66-1.52v-.87A9.7,9.7,0,0,0,227.11,65.82Zm1.75-5.45V59.5L228,61.9A1.46,1.46,0,0,0,228.86,60.37Zm7.84-33.78a29.91,29.91,0,0,1-2.18,2.83c-1.09,2-6.1,14.39-6.1,16.13h.44c1.09,0,1.52-.87,1.74-1.74C232.78,38.14,234.52,32.48,236.7,26.59Zm-7-8.5a1.64,1.64,0,0,0-.44.87A1.64,1.64,0,0,0,229.73,18.09Zm-.22,10.46.65-.43h-.65Zm1.31-12.86a11.59,11.59,0,0,0-1.09,2.4l1.09-2Z"/><path d="M245.2,122.93c-.87,1.74-.65,5.45-.65,7.19,0,2.18.65,10.46,3.7,10.46a10.36,10.36,0,0,0,9.59-7l.22-.22V134c0,2-1.74,3.49-2.4,5.23,2.4-1.09,2.84-3.27,4.14-5.23a3.79,3.79,0,0,1,.44,1.09c0,1.53-1.31,2.4-1.53,3.71l1.53.22-.22.65.44.22v-.22h.65l-.22-.44h.22l.22-.87h.22l.43-.87v.87a2.78,2.78,0,0,0,.88-2.18l.87-1.09c-.44,6.32-6.32,10.47-12.43,10.47-13.29,0-21.14-9.16-21.14-22,0-10.46,4.36-20.92,10.47-29.42,4.79-6.76,11.55-10.46,19.83-10.46a27.14,27.14,0,0,1,5.88.87L262,76.5l1.75-.43c8.72,2.83,14.6,10,14.6,19.61C278.33,111.59,259.59,122.93,245.2,122.93Zm-7-17c-.22,0-.22,0-.22.22h.22Zm1.09-3.27-.66,1.09.44.22Zm.22-.44-.22.22h.22ZM243,96.34l.66-.22a.81.81,0,0,0-.66.22l-1.09,1.74-.43.65V99a19.58,19.58,0,0,0-1.53,2.18A2.63,2.63,0,0,0,241.5,99l.43-.87.87-.65C242.8,97,243,96.77,243,96.34Zm-.65,16.34a1.63,1.63,0,0,0-.22,1.09h.22Zm8.06-15c-3.05,3.06-7.19,9.16-7.19,13.74C244.77,106.58,248.47,102.44,250.43,97.64Zm-7.19,5.67v0Zm.87-2c.22-.22.22-.44.22-.87A1.62,1.62,0,0,0,244.11,101.35ZM245,100h.22a1.64,1.64,0,0,0,.44-.87C245.42,99.39,245.2,100,245,100Zm2.4,14.17c7.85-.87,19.4-13.73,19.4-21.58v-.87C257,93.94,249.13,104.62,247.38,114.21Zm3.27-16.78.87-.44v-.22l-.22.22C250.87,97,250.87,97.21,250.65,97.43Zm14.82,6.32a1.3,1.3,0,0,0-.22.87l-.65.44.65-.22v-.22Zm1.53-2.4-.44.87v.22C266.78,102,267,101.79,267,101.35Zm.65-1.31a.47.47,0,0,0,.44-.43h-.44Zm.87,8.72c.22-.22.44-.22.44-.44Zm.44-5h.22l.21-.66Zm.87,4.36a.8.8,0,0,0-.65.21A.82.82,0,0,0,269.83,108.11Zm0-.22a18.61,18.61,0,0,0,4.36-7.85C273.32,101.57,269.83,106.58,269.83,107.89Z"/><path d="M74.27,208.18a4,4,0,0,1-.44-1.52c0-1.31,1.31-1.53,2.4-1.53,2.18,0,4.14.87,6.32,1.09a31.93,31.93,0,0,0,4.58.22c7.19,0,14.17-2,21.36-2,2.83,0,11.12,3.27,12,6.1,1.52,1.53,4.36,2.83,4.36,5.45,0,2.83-3.93,10.9-5.23,13.73L108.93,254a170.72,170.72,0,0,0-7.2,17.22l-7.84,22.89c-3.27,9.37-3.49,18.31-3.71,28.11a34.22,34.22,0,0,1-4.79-.65c-7.41-2.18-10.25-10-10.25-17,0-12.42,4.36-23.54,7.2-35.53-6.33,1.75-12.65,3.49-19.18,3.49C47.68,272.48,34,264.2,24.79,252c-4.79-6.32-5.44-14.6-5.44-22.45A67.39,67.39,0,0,1,20.65,218c6.32-33.78,33.79-70.62,71.28-70.62,15.47,0,26.59,5.45,34.87,18.75a2.92,2.92,0,0,1,.65,1.74,3.21,3.21,0,0,1-.43,1.31l-2,.65c-1.52,3.93-2.39,12-2.39,16.35,0,2.4.43,4.58.43,7a6.1,6.1,0,0,1-.87,3.27c-8.28-2.83-10.9-10.24-10.9-18.31,0-4.79,2-9.59,2-14.38v-.66a34.1,34.1,0,0,0-8.07-.87c-28.55,0-50.57,21.8-61.24,46.65-3.71,8.71-6.54,18.74-6.54,28.33,0,10.9,4.57,25.28,17.65,25.28A37.48,37.48,0,0,0,73.83,257c3.06-1.74,15.92-8.93,17-11.77l10.68-26.59c0-.21.21-1.09.21-1.3C92.36,217.55,79.72,217.12,74.27,208.18ZM38.09,187.26C42.67,179.85,49,173.31,54.87,167c-7.84,3.92-17.22,19.83-21.36,27.68C34.6,193.8,37.22,188.78,38.09,187.26ZM34.82,216.9l.22-.44c8.72-22,14.38-30.73,31.82-46.86-12.64,6.32-27,26.81-30.51,40.33-.88,3.27-1.31,6.75-2.84,9.8C34.6,219.3,34.82,218,34.82,216.9Zm2.62-19.18a45.62,45.62,0,0,1,2.61-4.36c4.36-7.19,9.37-13.29,14.6-19.83-6.1,3.48-13.94,17.65-17.65,24Zm13.07-15.47c0-.22,0-.22-.21-.22Zm.66,8.06h.22v-.22Zm6.1-19.4h.22l-.22-.22-.44.44ZM60.76,179h-.22v.21Zm1.74-1.75c0-.22,0-.22-.22-.22ZM85,275.75v-.22c-.22,0-.22,0-.22.22Zm.22-.87h.65l-.65-.44Zm1.74,27c3-14.38,8.28-28.11,13.52-41.63.87-2.39,2.18-4.79,2.83-7.41H103l-2.83,4.58c-4.36,8.28-13.73,36.18-13.73,45.12Zm.87-34-.87.87.22.22Zm-.65,15.7v-.66h-.22Zm.65-3.71.22.22.44-.44Zm3.06-9.15.65.21a27.83,27.83,0,0,1,.65-3.7Zm3.7-8.29-.65-.21c0,.43-.22,1.09-.22,1.52A4.65,4.65,0,0,1,94.54,262.45Zm3.92-23.75a12.31,12.31,0,0,0,2.62-6.54Zm.66,31.38v.22h.22Zm.43-.87h.22c0-.22,0-.22-.22-.22Zm.88-2.18h.21c0-.22,0-.22-.21-.44Zm.65-1.31v-.22c-.22,0-.22,0-.22.22Zm2-37.49-.43-.43-.66,1.74Zm-1.09,14c2-2.18,2.62-4.79,3.27-7.41Zm4.58,3L119,216.9h-1.09l-12.42,27.46Zm2.18,1.31-.22.66h.22Zm1.52-23.32H110a1.31,1.31,0,0,0-.22.87Zm0,19.62v.21h.22Zm.44-.66.22-.22h-.22Zm2-3.27v-.43h-.22v.65Zm3.27-8.5.22-.21h-.22Z"/><path d="M134.86,260.93c-.87,1.74-.65,5.45-.65,7.19,0,2.18.65,10.46,3.7,10.46a10.36,10.36,0,0,0,9.59-7l.22-.22V272c0,2-1.74,3.49-2.39,5.23,2.39-1.09,2.83-3.27,4.14-5.23a4,4,0,0,1,.43,1.09c0,1.53-1.31,2.4-1.52,3.71l1.52.22-.22.65.44.22v-.22h.65l-.21-.44h.21l.22-.87h.22l.44-.87v.87a2.81,2.81,0,0,0,.87-2.18l.87-1.09c-.44,6.32-6.32,10.47-12.42,10.47-13.3,0-21.15-9.16-21.15-22,0-10.46,4.36-20.92,10.47-29.42,4.79-6.76,11.55-10.46,19.83-10.46a27.14,27.14,0,0,1,5.88.87l-4.35-8.07,1.74-.43c8.72,2.83,14.6,10,14.6,19.61C168,249.59,149.25,260.93,134.86,260.93Zm-7-17c-.22,0-.22,0-.22.21h.22Zm1.09-3.27-.66,1.09.44.21Zm.22-.44-.22.22h.22Zm3.48-5.88.66-.22a.81.81,0,0,0-.66.22l-1.09,1.74-.43.65V237a19.58,19.58,0,0,0-1.53,2.18,2.63,2.63,0,0,0,1.53-2.18l.43-.87.88-.65C132.47,235,132.68,234.77,132.68,234.34ZM132,250.68a1.63,1.63,0,0,0-.22,1.09H132Zm8.06-15c-3.05,3.06-7.19,9.16-7.19,13.74C134.43,244.58,138.13,240.44,140.09,235.64Zm-7.19,5.67v0Zm.87-2c.22-.22.22-.44.22-.87A1.62,1.62,0,0,0,133.77,239.35Zm.88-1.31h.21a1.64,1.64,0,0,0,.44-.87C135.08,237.39,134.86,238,134.65,238ZM137,252.21c7.85-.87,19.4-13.73,19.4-21.58v-.87C146.63,231.94,138.79,242.62,137,252.21Zm3.27-16.78.87-.44v-.22L141,235C140.53,235,140.53,235.21,140.31,235.43Zm14.82,6.32a1.33,1.33,0,0,0-.21.87l-.66.43.66-.21v-.22Zm1.53-2.4-.44.87v.22C156.44,240,156.66,239.79,156.66,239.35Zm.65-1.31a.47.47,0,0,0,.44-.43h-.44Zm.87,8.72c.22-.22.44-.22.44-.44Zm.44-5h.22l.22-.66Zm.87,4.36a.81.81,0,0,0-.65.21A.81.81,0,0,0,159.49,246.11Zm0-.22a18.61,18.61,0,0,0,4.36-7.85C163,239.57,159.49,244.58,159.49,245.89Z"/><path d="M168.86,278.58c0-11.77,7.63-37.7,11.12-49.69,1.74-5.45,3.7-12,3.7-17.87a17.21,17.21,0,0,0-.65-3.27c.44-1.09,1.31-1.09,2.18-1.09a18.62,18.62,0,0,1,3,1.3,16.41,16.41,0,0,1,8.94,14.39c0,12.64-8.5,39.45-12.86,52.09l.43.22C197,257.88,208.53,240.88,222,225.18c5.24-6.1,10.47-12.2,15.92-18.09,1.74-1.74,3.27-3.48,5.66-4.14,4.14.66,12.21,5,12.21,10,0,2.83-3.49,11.77-4.58,14.82-5.88,15.25-21.58,59.5-21.58,74.1,0,2.18.66,4.14,2.62,5.23a2.06,2.06,0,0,1-2.18,2.18c-12.42,0-14.82-10.46-14.82-20.7,0-13.73,6.75-32.48,10.9-45.77,2-6.54,4.79-12.64,7.19-19a9.79,9.79,0,0,0-2,1.3c-9.59,9.81-17.66,21.8-24.85,33.35-4.58,7.41-15.69,26.16-21.36,31.17a4.42,4.42,0,0,1-3.49,1.31C175.4,291,168.86,285.12,168.86,278.58Zm20.06,1.53a1.12,1.12,0,0,0-.44.87Zm3.48-12.43c1.31-1.52,2.18-3.05,3.27-4.57A22,22,0,0,0,192.4,267.68Zm2.4,4.58a9.31,9.31,0,0,1,.87-1.52,6.92,6.92,0,0,0-1.74,2.61Zm.22-2.83c.22,0,.22,0,.22-.22Zm2.61-8.94c.44-1.31,1.31-1.74,2.18-2.83,1.75-2,2.84-4.36,4.36-6.54,9.81-14.6,22.45-27,33.57-40.76l.65-.87-.43-.44c-11.12,11.77-21.8,24-31.17,37.27-3.49,5-7.41,9.81-10,15.26Zm-.43,6.1v-.21l-.22.21Zm4.14-4.35a22,22,0,0,0-3.71,5.44A47.33,47.33,0,0,0,201.34,262.24Zm-.44-2.4h-.65a1.64,1.64,0,0,1-.44.87h1.09l.22-.65Zm.44,2.18a16.2,16.2,0,0,0,2.83-4.58C203.3,259,202,260.27,201.34,262Zm.44-4.14v.65a.8.8,0,0,0,.21.65,1.28,1.28,0,0,0,.22-.87h.87a1.28,1.28,0,0,0-.87-.22Zm0,5.66V264l.21-.22Zm.87-7V257a9.13,9.13,0,0,1,.43,1.31V257a.83.83,0,0,0,.66-.21,2.22,2.22,0,0,1-.66-.22Zm1.09-1.53v.66a1.31,1.31,0,0,0,.22.87c0-.66.21-1.09.87-1.09a.81.81,0,0,0-.66-.22Zm.87-1.31v.44a2.75,2.75,0,0,1,.22,1.31,2.87,2.87,0,0,0,.21-1.31l.44-.22a2.12,2.12,0,0,1-.65-.22Zm1.09,2,.22-.88-.66,1.31ZM215.94,242l.87-1.3h.44l1.09-1.09a15.36,15.36,0,0,1,2.83-3.71c.44-1.31,5.67-7.63,7-8.28l-.44-.22v-.87c-2.4,2.62-4.36,5.45-7.19,7.41,1.09-2.61,11.77-14.17,14.17-17.22a253.38,253.38,0,0,0-29.21,35.53v.65l.22.87a67.34,67.34,0,0,1,5.88-7.84,6.35,6.35,0,0,1-.87,2.18l1.53-.87h.43a11.62,11.62,0,0,0,2.18-3.49l.66-.44a2.14,2.14,0,0,1,.87-1.09Zm-8.5,10.9a4.73,4.73,0,0,1,1.31-.87v-.22a3.1,3.1,0,0,0,.44-1.52ZM209,252v.44a.81.81,0,0,0,.22-.66Zm17.43,35.75h.22v-.66h-.22Zm.22-2.18.66.21a52.7,52.7,0,0,0,.87-5.66ZM251,213.2c-9.15,18.3-17.87,46.42-22.88,66.47a4.59,4.59,0,0,0,.87-1.31c3.7-9.8,5.88-20.27,9.37-30.07,4.14-11.77,9.16-23.11,13.3-34.88Zm-18.52,9.37c.43-1.09,1.74-1.53,1.74-2.84l2.4-3.27-8.5,9.38a3.22,3.22,0,0,1,2-.88A12.35,12.35,0,0,1,232.51,222.57ZM233.6,235l.21-.22h-.21Zm1.52-4.14c0,.22-.22.22-.22.44h.22ZM236,228l-.65,1.52.65.22Zm.66-.44c2-4.36,4.36-8.72,6.54-13.08v-1.09A112.58,112.58,0,0,0,236,228Zm5.88-3.05c1.09-2.4,2.4-4.8,3.27-7.19A27.33,27.33,0,0,0,242.53,224.53Zm4.8-10.68-.22-.22v.87Z"/><path d="M324.05,187.48c-5,6.1-24.41,7.84-32.26,9.15C284,222.13,279.37,248.5,275,274.88c-2.18,13.95-3.92,28.33-3.92,42.5a74.09,74.09,0,0,0,2.18,17,5,5,0,0,1,.21,1.74c0,2-2.83,2.62-4.35,2.62-.66,0-.88-.66-1.09-1.09l-1.31,2c-2.62-1.31-5.45-2-8.07-3.27-8.06-4.14-8.06-19-8.06-26.59,0-22.89,3.05-46.21,6.54-68.87.87-5.24,1.31-10.68,2.4-15.92,1.09-6.1,2.61-12.2,3.48-18.3.22-1.53.87-2.84.87-4.36,0-1.09-2-1.09-2.61-1.09-2.18,0-4.58.22-6.76.22l.22-.22a15.57,15.57,0,0,1-6.54-4.8l.22-1.31-2-1.08c.43-2.18.87-2.84,3-3.49,4.79-1.31,9.81-1.75,14.6-2.84,4.8-6.32,9.16-12.86,12.21-20.27,2.39-5.66,5.88-11.11,8.93-16.34.88-1.53,1.75-2.84,3.71-2.84l2.61,1.31L290.05,153c1.31-1.31,2.18-2.62,3.27-3.92l.87,1.3,1.74-.21-1.09,3,1.75-1.53,2.39.87v2.18l1.75-.43c1.31,1.09,3.49,2.18,3.49,4.14,0,.87-7.85,23.32-7.85,23.32,1.53-.22,3.27,0,4.79-.44a49,49,0,0,1,11.34-.87c4.58,0,5.67.87,8.5,4.58C321,186.82,322.74,187.26,324.05,187.48Zm-67.35,99.6h-.22v2.84h.22Zm.87-9.15h-.21v2.61h.21Zm3.06-21.58-.66-.22-2.18,18.09h.44C258.88,268.34,259.75,262.24,260.63,256.35Zm10.46-56.23c-3,4.79-10.25,46.2-10.25,53.18v1.09C263.89,236.3,266.51,218,271.09,200.12Zm-9.81,96.12v-2.18h-.22v2.18Zm0-5.45h.22v-.44h-.22Zm.87-8.72h-.22l-.22,4.14h.22Zm.65-5.23h-.21c0,1.09-.22,2-.22,3.05h.43Zm.44-3.71v1.09c2-12.64,3.71-25.28,6.1-37.7,2.4-12.64,5.23-25.07,7.85-37.71C273.27,203.82,263.24,264.2,263.24,273.13Zm20.92-75.19-2,.22c-5.45,17.87-8.72,36.61-11.77,54.92-2.83,18.75-5.88,37.93-5.88,56.89a78.13,78.13,0,0,0,.43,10C266.73,278.8,273.7,237.82,284.16,197.94ZM267.82,186.6V187l.87-1.31A.94.94,0,0,0,267.82,186.6ZM269.13,298h-.22v.65h.22Zm.65-5.88V291c-.22.21-.22.65-.22,1.09Zm.87-7.2v-.65h-.22v.65Zm.65-5.88h-.21v.87h.21Zm.66-4.58h-.22v.87Zm.65-3.27a1.3,1.3,0,0,1-.22-.87h-.21a1.34,1.34,0,0,0,.21.87Zm.44-5.23h-.22v1.53h.22Zm.65-3.7h-.22v.87h.22Zm.22-38.58v.65h.22v-.65Zm.44,36v-1.74h-.22v1.74Zm.21-38.8a2,2,0,0,1-.21,1.09h.21l.22-1.09Zm.44,35.09v-1.3h-.44v1.3Zm0-36.83h.22v-.44Zm.65,33.35a2,2,0,0,0-.21-1.09h-.22v1.09Zm0-36.62v.65h.22v-.65Zm.44,32.91v-.87h-.22v.87Zm.65-2.61v-1.53h-.21l-.22,1.53ZM277,211l-.43.65H277Zm-.22-28.77L277,182C276.75,182,276.75,182,276.75,182.25Zm.66,60.59a2.73,2.73,0,0,0-.22-1.31H277v1.31Zm-.22-33.79.22.22.43-.87Zm.65,29.21h-.21V240h.21Zm.66-1.31v-1.52h-.22l-.22,1.3C278.28,237,278.28,237,278.5,237Zm-.22-31.16.43-1.09-.43-.22Zm.65,26.8h-.22v1.53h.22Zm0-30.07V203c.22-.22.22-.22.22-.43Zm.66,28.55v-1.31h-.22v1.31Zm.65-3.93-.44,1.09.44.22Zm.87-2.61a.94.94,0,0,0-.87.87c0,.44.22.65.22,1.09Zm-.22-1.31c0,.44.22.66.22,1.09l.66-2.18C281.33,222.35,280.89,222.57,280.89,223.22Zm.66-38.8c1.74-1.74,2-4.14,2.4-6.32C282.2,179.85,282,182.25,281.55,184.42Zm.22,37.49c0-.65.21-1.3.21-2h-.43A5.94,5.94,0,0,0,281.77,221.91Zm.65-3.27v-1.09c-.22.44-.44.66-.44,1.09Zm.22-2.39a.78.78,0,0,0-.22.65l.22-.22Zm.43-1.53.22-.65A.79.79,0,0,0,283.07,214.72Zm.66-2.61-.22.21c0,.66-.22,1.09-.22,1.75l.44-1.75Zm1.09-3.49c-1.09.87-1.09,2.18-1.09,3.49A22.26,22.26,0,0,0,284.82,208.62Zm-.66-31c-.21.22-.21.22-.21.43C284,177.89,284.16,177.89,284.16,177.67Zm1.75,27a3.45,3.45,0,0,0-1.09,2.39,2.75,2.75,0,0,0,.22,1.31A21.33,21.33,0,0,1,285.91,204.7Zm-1.09,3.92H285v-.22Zm.43-46.64c.22-.22.22-.22.22-.44C285.47,161.76,285.25,161.76,285.25,162Zm.66-2-.44,1.09A1.63,1.63,0,0,0,285.91,160Zm.43-.87-.43.87A1.59,1.59,0,0,0,286.34,159.14Zm-.43,44.68.65-1.52v-.87A10.13,10.13,0,0,0,285.91,203.82Zm1.74-5.45v-.87l-.87,2.4A1.47,1.47,0,0,0,287.65,198.37Zm7.85-33.78a33.65,33.65,0,0,1-2.18,2.83c-1.09,2-6.11,14.39-6.11,16.13h.44c1.09,0,1.53-.87,1.74-1.74C291.57,176.14,293.32,170.48,295.5,164.59Zm-7-8.5a1.62,1.62,0,0,0-.43.87A1.69,1.69,0,0,0,288.52,156.09Zm-.22,10.46.66-.43h-.66Zm1.31-12.86a12.14,12.14,0,0,0-1.09,2.4l1.09-2Z"/><path d="M341.92,239.79l1.75-1.75-.22,1.31.65-1.31h-.43l.43-.65V238l.44-.87h.22l.87-1.53.43.22c-3.92,10-10.68,19.4-16.34,28.56-3.27,5.23-6.32,10.67-9.81,15.69-4.36,6.32-11.34,15.91-16.35,21.36A5.4,5.4,0,0,1,299.2,303c-6.32,0-10.9-3.48-10.9-10,0-11.77,2.84-24.2,5.89-35.31,2.4-8.72,4.58-17.44,5.23-26.37v-.88c0-1.09-.65-2.18-.65-3.27,0-.87,1.3-1.3,2-1.52,9.59,1.31,17.44,6.32,17.44,16.78,0,8.28-2.84,15.69-5.24,23.54l-4.79,16.13c0,.22-.22.22-.22.44a2.12,2.12,0,0,1,.22.65c6.1-7.63,11.33-16.13,16.78-24.19,3.27-4.8,7.19-9.16,10.68-13.74,2-2.39,3.27-5.66,5.67-7.84l-1.09,2,1.52-1.74c-3.48,5.88-7.84,11.33-10.68,17.65a32.45,32.45,0,0,0,4.15-5.45c2.17-3.7,3.7-8.28,7-11.33Zm-42.72,54c3.27-12.64,7-25.28,10.46-37.93-2.61,4.58-3.26,9.81-4.79,14.83-2.18,7.62-5,15.25-6.1,23.1Zm14.61-100.7,1.09.22v1.53a4,4,0,0,0,1.52-1.09l2.18,1.09-.43,1.52,2.61.44V199l1.09-.22a4.49,4.49,0,0,1,2.18,3.71c0,5.23-2.4,9.8-2.4,15,0,2.84.87,5.89.87,8.72a3.46,3.46,0,0,1-2,.66c-1.52,0-2.61-1.31-4.14-1.09-5.23-3.05-9.81-12.86-9.81-19,0-3.27,2.4-14.61,6.54-14.61Zm-4.58,92.2c8.72-12.86,17.44-25.72,26.37-38.58-3.49,3.71-7.19,7.41-9.59,11.55-3.7,6.11-7.84,12-11.55,18.09-2.4,3.71-5.45,7-7.41,10.9A20.4,20.4,0,0,0,309.23,285.34Zm.65-31.82v1.3c.22-.21.22-.87.44-1.3Zm7.41,24.63c-1.09.21-1.52,1.3-2,2.18Zm2.62-3.71c-1.09.22-2,.65-2,2v.44Zm7.19-9.15a17.23,17.23,0,0,0,1.74-3.49,26.37,26.37,0,0,1-2.61,4.14Zm4.8-6.32.65-.66a.78.78,0,0,1-.65-.22,21.76,21.76,0,0,0,1.52-3.27l-2.61,3.71,1.09-.44Zm4.14-7.63.65-1.09v-.87a13.18,13.18,0,0,0-2,3.27l.87-.44.44-.87a1.34,1.34,0,0,1,.21.87,1.3,1.3,0,0,0,.22-.87Zm.21.87h-.43a.8.8,0,0,0-.22.65Zm.44-1.74v.43c.22-.22.22-.22.22-.43Zm1.74-2.84c0-.87.44-1.52.44-2.4l-2,3.71.87-.44v.66l.44-.66h-.44Zm0,0v.66l.44-.66a1.3,1.3,0,0,1,.22-.87h-.22c0,.22-.22.65,0,.87Zm3.71-7.19-.22.87-.87.22a2.68,2.68,0,0,0,.87-1.74Zm.44.65-.44.22-.22.65Zm.65-5.66.44.21a7.27,7.27,0,0,1-1.53,2.84A16.91,16.91,0,0,0,343.23,235.43Zm.87,2V237h.22v.22Zm.44-1.09V237h-.22Zm0,.87V237h.22Z"/><path d="M369.6,130.15c6.32,0,13.3,10,13.3,16.13,0,8.94-10,39.23-13.08,49.48-1.74,5.88-3.92,11.77-5.67,17.65l-11.77,42.07c-3.92,14-7,28.77-7,43.15a47.49,47.49,0,0,0,2,12.21c.65,2.62,1.74,5.45,2,8.06-.65,0-1.31.22-2,.22-5.88,0-10.68-4.14-13.95-8.72-3.92-5.44-4.36-12.64-4.36-19.18,0-27,14.39-78.24,22.89-105.05,2.61-8.07,17.65-46,17.65-50.35a8.12,8.12,0,0,0-1.52-4.36A1.87,1.87,0,0,1,369.6,130.15ZM342.14,280.54c1.09-6.75,2.18-13.29,3.92-20.05,2.62-10.46,5-20.92,7.85-31.38,4.14-14.61,9.37-29,12.86-43.81-2.84,4.36-13.95,45.33-16.35,53.61a255.84,255.84,0,0,0-9.37,46.21A34.19,34.19,0,0,0,342.14,280.54Zm26.37-100a2.57,2.57,0,0,0-1.09,2.4Zm.66-2-.44-.22a7.38,7.38,0,0,0-.22,2.18Zm1.08-3.71-.21-.21v.21Z"/><path d="M375.7,260.93c-.87,1.74-.65,5.45-.65,7.19,0,2.18.65,10.46,3.7,10.46a10.36,10.36,0,0,0,9.59-7l.22-.22V272c0,2-1.74,3.49-2.4,5.23,2.4-1.09,2.84-3.27,4.14-5.23a3.79,3.79,0,0,1,.44,1.09c0,1.53-1.31,2.4-1.53,3.71l1.53.22-.22.65.44.22v-.22h.65l-.22-.44h.22l.22-.87h.22l.43-.87v.87a2.78,2.78,0,0,0,.88-2.18l.87-1.09c-.44,6.32-6.32,10.47-12.43,10.47-13.29,0-21.14-9.16-21.14-22,0-10.46,4.36-20.92,10.47-29.42,4.79-6.76,11.55-10.46,19.83-10.46a27.14,27.14,0,0,1,5.88.87l-4.36-8.07,1.75-.43c8.72,2.83,14.6,10,14.6,19.61C408.83,249.59,390.09,260.93,375.7,260.93Zm-7-17c-.22,0-.22,0-.22.21h.22Zm1.09-3.27-.66,1.09.44.21Zm.22-.44-.22.22H370Zm3.48-5.88.66-.22a.81.81,0,0,0-.66.22l-1.09,1.74-.43.65V237a19.58,19.58,0,0,0-1.53,2.18A2.63,2.63,0,0,0,372,237l.43-.87.87-.65C373.3,235,373.52,234.77,373.52,234.34Zm-.65,16.34a1.63,1.63,0,0,0-.22,1.09h.22Zm8.06-15c-3.05,3.06-7.19,9.16-7.19,13.74C375.27,244.58,379,240.44,380.93,235.64Zm-7.19,5.67v0Zm.87-2c.22-.22.22-.44.22-.87A1.62,1.62,0,0,0,374.61,239.35Zm.87-1.31h.22a1.64,1.64,0,0,0,.44-.87C375.92,237.39,375.7,238,375.48,238Zm2.4,14.17c7.85-.87,19.4-13.73,19.4-21.58v-.87C387.47,231.94,379.63,242.62,377.88,252.21Zm3.27-16.78L382,235v-.22l-.22.22C381.37,235,381.37,235.21,381.15,235.43ZM396,241.75a1.28,1.28,0,0,0-.22.87l-.65.43.65-.21v-.22Zm1.53-2.4-.44.87v.22C397.28,240,397.5,239.79,397.5,239.35Zm.65-1.31a.47.47,0,0,0,.44-.43h-.44Zm.87,8.72c.22-.22.44-.22.44-.44Zm.44-5h.22l.21-.66Zm.87,4.36a.8.8,0,0,0-.65.21A.82.82,0,0,0,400.33,246.11Zm0-.22a18.61,18.61,0,0,0,4.36-7.85C403.82,239.57,400.33,244.58,400.33,245.89Z"/></g></g></svg>